<?xml version="1.0" encoding="UTF-8" ?>
<!DOCTYPE svg PUBLIC "-//W3C//DTD SVG 1.1//EN" "http://www.w3.org/Graphics/SVG/1.1/DTD/svg11.dtd">
<svg width="810pt" height="797pt" viewBox="0 0 810 797" version="1.1" xmlns="http://www.w3.org/2000/svg">
<g id="#ffffffff">
</g>
<g id="#1e3050ff">
<path fill="red" opacity="1.00" d=" M 257.00 77.10 C 298.69 60.03 344.13 53.75 388.99 54.50 C 424.11 53.80 459.69 57.55 493.00 69.16 C 530.15 81.58 564.27 102.48 592.88 129.17 C 621.43 155.21 644.31 187.53 658.84 223.37 C 666.11 240.99 671.14 259.45 674.92 278.11 C 678.10 295.60 686.06 312.05 697.11 325.92 C 709.78 341.91 722.45 357.90 735.11 373.90 C 741.82 382.55 748.95 390.89 755.27 399.84 C 768.87 419.03 768.90 446.88 754.97 465.91 C 748.27 474.54 740.16 482.52 730.07 487.04 C 722.86 490.31 714.93 491.85 707.03 491.95 C 697.35 492.07 687.68 491.96 678.00 492.00 C 678.00 520.33 677.99 548.65 678.00 576.98 C 677.85 595.38 672.71 613.96 662.02 629.07 C 653.18 641.47 641.31 651.86 627.45 658.30 C 614.02 664.82 598.91 667.20 584.07 667.01 C 557.05 666.99 530.02 667.00 503.00 667.00 C 502.92 682.03 503.16 697.06 502.88 712.08 C 502.70 723.96 497.92 736.01 488.79 743.83 C 480.58 751.43 469.07 754.64 458.06 754.49 C 371.38 754.51 284.69 754.51 198.00 754.49 C 185.52 754.78 172.56 750.37 164.14 740.87 C 156.14 732.39 152.82 720.50 153.01 709.04 C 153.00 677.37 152.99 645.69 153.01 614.02 C 152.83 596.87 148.51 579.72 140.01 564.80 C 135.98 557.17 130.37 550.58 125.46 543.53 C 110.08 522.19 97.13 499.05 87.46 474.58 C 75.19 443.84 68.23 411.07 66.19 378.06 C 65.08 363.02 65.68 347.91 67.18 332.93 C 71.08 290.05 84.09 247.96 105.48 210.57 C 119.72 185.45 137.29 162.16 158.02 142.04 C 174.40 126.12 192.61 112.08 212.13 100.22 C 226.45 91.36 241.36 83.38 257.00 77.10 M 346.62 186.83 C 340.93 187.34 335.42 190.37 332.16 195.09 C 328.88 199.66 327.82 205.43 327.99 210.97 C 328.02 222.65 322.71 234.24 313.67 241.68 C 304.43 250.07 291.54 253.95 279.18 252.88 C 270.99 251.81 263.52 248.14 255.98 245.01 C 248.82 242.49 240.82 245.34 235.83 250.79 C 230.43 256.87 225.88 263.66 221.46 270.47 C 217.20 278.61 213.26 286.92 209.01 295.07 C 204.92 302.50 206.66 312.46 212.63 318.38 C 217.02 323.14 223.11 325.79 227.75 330.26 C 235.62 337.22 240.00 347.59 240.36 358.02 C 241.16 369.83 237.43 382.34 228.55 390.51 C 222.58 396.61 213.63 399.61 209.38 407.38 C 205.58 413.76 206.25 421.91 209.66 428.31 C 212.49 435.75 217.14 442.27 220.58 449.42 C 222.88 453.64 225.74 457.54 228.44 461.52 C 232.07 466.19 235.17 471.53 240.32 474.72 C 245.35 478.43 252.40 478.12 257.87 475.59 C 263.02 473.51 268.16 471.42 273.37 469.49 C 286.58 465.06 301.21 469.90 311.80 478.24 C 320.34 484.55 326.22 494.32 327.58 504.87 C 328.59 511.17 326.98 518.00 330.14 523.85 C 332.91 529.72 339.37 532.64 345.55 533.18 C 364.47 536.70 384.08 536.38 402.85 532.12 C 410.97 529.75 415.50 521.09 415.46 513.03 C 415.37 506.79 416.17 500.46 418.70 494.71 C 422.22 485.91 429.40 479.16 437.36 474.30 C 447.81 467.61 461.65 465.63 473.20 470.61 C 479.79 472.85 485.65 477.75 492.92 477.46 C 499.39 477.76 504.60 473.08 508.59 468.55 C 513.88 462.74 518.73 456.51 522.76 449.76 C 527.13 440.97 531.42 432.10 534.67 422.83 C 536.57 417.29 536.47 410.82 533.11 405.86 C 528.57 398.97 520.28 396.14 514.71 390.30 C 505.67 381.86 502.18 368.95 503.17 356.89 C 503.67 346.87 507.95 337.17 514.95 329.99 C 518.11 326.87 521.40 323.56 525.87 322.48 C 533.27 318.29 537.77 309.12 535.30 300.73 C 532.88 292.88 529.30 285.45 525.82 278.03 C 521.90 268.93 515.78 261.03 509.80 253.22 C 505.06 247.02 497.13 242.52 489.16 244.55 C 480.40 247.34 472.38 252.67 463.04 253.54 C 450.75 254.67 438.58 249.46 429.50 241.39 C 420.64 234.00 415.50 222.54 415.51 211.04 C 415.66 205.59 414.66 199.91 411.51 195.36 C 408.10 190.24 402.11 187.06 396.01 186.76 C 379.58 185.42 363.04 185.45 346.62 186.83 Z" />
<path fill="red" opacity="1.00" d=" M 363.60 306.73 C 378.58 304.59 394.94 308.30 406.44 318.46 C 416.21 326.29 422.76 337.80 425.13 350.05 C 430.20 373.26 417.94 398.99 396.66 409.59 C 384.70 415.06 370.95 417.26 358.13 413.62 C 352.21 411.71 346.02 409.99 341.00 406.15 C 329.50 398.17 321.10 385.71 318.51 371.91 C 313.69 350.99 322.92 327.77 340.62 315.65 C 347.25 310.58 355.45 308.05 363.60 306.73 Z" />
</g>
</svg>
