<?xml version="1.0" encoding="UTF-8" ?>
<!DOCTYPE svg PUBLIC "-//W3C//DTD SVG 1.1//EN" "http://www.w3.org/Graphics/SVG/1.1/DTD/svg11.dtd">
<svg width="315pt" height="291pt" viewBox="0 0 315 291" version="1.1" xmlns="http://www.w3.org/2000/svg">
<g id="#193254ff">
</g>
<g id="#fdfefeff">
<path fill="#fdfefe" opacity="1.00" d=" M 90.45 13.53 C 127.04 4.90 167.96 22.59 186.86 55.09 C 195.95 68.80 199.06 85.34 200.69 101.45 C 192.49 106.46 186.77 114.92 185.44 124.45 C 176.87 123.78 166.48 120.94 159.41 127.48 C 146.67 138.45 138.13 154.10 134.59 170.47 C 131.93 179.50 138.98 187.00 144.41 193.26 C 139.78 198.53 137.76 205.82 132.67 210.62 C 112.45 211.53 92.18 211.03 71.94 211.01 C 68.91 211.26 66.73 208.94 65.68 206.35 C 61.14 196.23 56.55 186.04 49.90 177.08 C 39.24 161.12 25.39 146.25 21.11 126.98 C 12.06 95.69 21.77 59.84 45.66 37.66 C 57.68 25.22 73.58 17.00 90.45 13.53 M 97.70 46.84 C 72.63 51.06 52.65 74.64 52.09 99.97 C 52.34 103.02 51.90 108.05 55.62 109.44 C 59.33 111.56 65.35 110.18 66.42 105.66 C 68.15 98.64 68.28 91.16 71.40 84.52 C 77.18 71.30 90.86 62.33 105.15 61.24 C 108.52 60.07 114.20 61.02 116.00 56.95 C 118.16 52.96 114.96 48.97 113.24 45.49 C 108.04 45.74 102.86 46.20 97.70 46.84 Z" />
<path fill="#fdfefe" opacity="1.00" d=" M 206.37 116.52 C 218.18 113.94 230.90 112.89 242.59 116.58 C 248.96 119.50 247.02 127.55 248.04 133.04 C 247.91 138.81 252.97 144.36 258.77 144.40 C 265.06 143.04 270.17 138.07 276.89 138.18 C 281.31 139.02 283.93 143.16 286.69 146.31 C 292.70 154.73 298.38 164.31 298.89 174.92 C 296.54 182.32 284.87 182.27 283.37 190.40 C 280.41 201.19 293.05 205.06 299.60 210.23 C 298.05 224.16 290.85 237.23 280.90 246.91 C 273.51 251.97 266.25 243.26 258.99 242.40 C 254.62 242.98 249.04 245.36 248.82 250.42 C 247.05 256.28 250.08 264.98 243.99 268.98 C 230.97 274.75 215.99 273.42 202.89 268.52 C 201.88 261.13 202.31 253.05 198.70 246.30 C 195.28 243.79 190.49 240.80 186.26 243.30 C 180.77 245.20 174.02 251.82 168.29 246.68 C 159.88 238.79 154.09 228.25 150.81 217.27 C 145.22 204.15 168.40 205.67 166.10 192.96 C 166.80 183.30 153.79 183.02 150.30 175.64 C 149.74 166.41 155.03 158.20 159.56 150.60 C 162.84 146.42 165.14 140.53 170.40 138.36 C 176.75 136.98 181.52 142.34 187.46 143.27 C 191.48 144.10 196.12 143.04 198.81 139.81 C 203.38 132.90 199.14 121.65 206.37 116.52 M 219.45 168.60 C 210.75 170.30 203.03 177.35 201.18 186.11 C 200.71 194.16 199.71 203.75 206.04 209.97 C 214.09 220.97 231.54 220.98 241.27 212.27 C 247.02 206.07 250.14 197.24 248.36 188.83 C 247.18 175.27 232.77 164.92 219.45 168.60 Z" />
<path fill="#fdfefe" opacity="1.00" d=" M 67.06 226.33 C 90.36 225.70 113.66 226.06 136.97 226.02 C 140.47 233.84 144.30 241.54 148.92 248.77 C 144.26 258.53 137.64 267.75 127.55 272.46 C 109.81 280.99 86.08 275.77 75.10 258.93 C 67.69 249.72 67.13 237.59 67.06 226.33 Z" />
</g>
</svg>
