<?xml version="1.0" encoding="UTF-8" ?>
<!DOCTYPE svg PUBLIC "-//W3C//DTD SVG 1.1//EN" "http://www.w3.org/Graphics/SVG/1.1/DTD/svg11.dtd">
<svg width="214pt" height="165pt" viewBox="0 0 214 165" version="1.1" xmlns="http://www.w3.org/2000/svg">
<g id="#fdfdfdff">
</g>
<g id="#203251ff">
<path fill="red" opacity="1.00" d=" M 44.03 19.05 C 67.05 2.22 99.40 -0.55 125.00 11.99 C 147.72 22.13 162.92 44.13 169.09 67.73 C 166.34 70.30 163.61 72.89 160.86 75.45 C 156.30 71.50 151.91 67.16 146.30 64.69 C 133.66 60.77 119.39 71.62 120.03 84.90 C 120.51 93.62 127.66 99.06 133.15 104.85 C 141.06 112.29 148.11 121.92 159.15 124.74 C 142.94 153.48 107.69 168.75 75.56 162.52 C 41.16 156.37 12.64 125.15 11.17 89.98 C 8.19 62.62 21.91 34.90 44.03 19.05 M 88.37 44.36 C 86.00 44.97 83.92 46.91 83.53 49.39 C 82.44 60.89 82.64 72.48 83.11 84.01 C 83.12 86.77 83.22 90.43 85.72 92.29 C 89.46 95.53 96.65 93.77 97.47 88.61 C 98.56 75.58 98.56 62.42 97.47 49.39 C 96.84 45.41 92.11 43.15 88.37 44.36 M 87.44 104.44 C 78.64 105.88 77.60 120.14 85.95 123.08 C 92.02 126.55 100.63 121.84 100.79 114.86 C 101.73 107.86 94.16 101.83 87.44 104.44 Z" />
<path fill="red" opacity="1.00" d=" M 194.17 60.16 C 196.49 57.64 200.29 56.00 203.64 57.34 C 206.72 59.13 209.54 63.64 206.91 66.90 C 196.40 79.33 183.88 89.89 172.83 101.83 C 168.50 105.55 165.04 112.23 158.21 110.93 C 149.61 103.90 141.84 95.82 134.42 87.58 C 130.22 82.67 136.86 74.51 142.79 77.11 C 149.22 81.92 154.50 88.05 160.23 93.66 C 172.12 83.08 182.88 71.35 194.17 60.16 Z" />
</g>
</svg>
